<svg width="920" height="224" version="1.1" xmlns="http://www.w3.org/2000/svg" desc="Created with imagetracer.js version 1.2.6" ><path fill="rgb(1,32,15)" stroke="rgb(1,32,15)" stroke-width="1" opacity="0.10588235294117647" d="M 0 0 L 25 0.5 Q 12.4 3.4 6 12.5 L 1 21.5 L 0.5 25 L 0 0 Z " /><path fill="rgb(1,32,15)" stroke="rgb(1,32,15)" stroke-width="1" opacity="0.10588235294117647" d="M 895.5 0 L 920 0 L 920 24.5 L 919 24.5 Q 916.6 11.9 907.5 6 L 898.5 1 L 895.5 1 L 895.5 0 Z " /><path fill="rgb(1,32,15)" stroke="rgb(1,32,15)" stroke-width="1" opacity="0.10588235294117647" d="M 0.5 199 Q 3.4 211.6 12.5 218 L 21.5 223 L 25 223.5 L 0 224 L 0.5 199 Z " /><path fill="rgb(1,32,15)" stroke="rgb(1,32,15)" stroke-width="1" opacity="0.10588235294117647" d="M 919.5 199 L 920 224 L 895 223.5 Q 907.6 220.6 914 211.5 L 919 202.5 L 919.5 199 Z " /><path fill="rgb(5,172,79)" stroke="rgb(5,172,79)" stroke-width="1" opacity="1" d="M 25.5 0 L 894.5 0 Q 907.2 3.3 914 12.5 L 920 25.5 L 920 198.5 Q 916.7 211.2 907.5 218 L 894.5 224 L 25.5 224 Q 12.8 220.7 6 211.5 L 0 198.5 L 0 25.5 Q 3.3 12.8 12.5 6 L 25.5 0 Z M 216 76 L 216 148 L 217 148 L 239 148 L 240 110 L 263 145 L 267 148 L 288 148 L 288 77 L 288 76 L 265 76 L 265 114 L 241 80 L 238 76 L 216 76 Z M 369 79 L 369 142 L 370 142 L 377 142 L 377 80 L 377 79 L 369 79 Z M 428 79 L 428 142 L 429 142 L 436 142 L 436 80 L 436 79 L 428 79 Z M 490 79 L 490 101 L 477 101 L 477 84 L 469 84 L 469 99 L 454 99 L 454 84 L 446 84 L 446 126 L 448 127 L 477 127 L 477 108 L 490 108 L 490 142 L 491 142 L 498 142 L 498 80 L 498 79 L 490 79 Z M 688 79 L 688 124 L 690 125 L 696 125 L 696 80 L 696 79 L 688 79 Z M 356 80 L 356 99 L 343 99 L 343 106 L 356 106 L 356 139 L 357 139 L 363 139 L 363 81 L 363 80 L 356 80 Z M 400 83 L 392 87 L 387 94 L 385 102 L 386 116 L 389 122 L 398 128 Q 408 130 412 125 L 418 114 Q 420 97 414 90 Q 410 83 400 83 Z M 528 83 L 528 89 L 529 89 L 564 89 L 564 97 L 564 97 L 528 97 L 528 118 L 546 118 L 546 128 L 521 128 L 521 135 L 522 135 L 579 135 L 579 129 L 579 128 L 554 128 L 554 118 L 574 118 L 574 113 L 574 112 L 536 112 L 536 105 L 537 104 L 572 104 L 572 83 L 528 83 Z M 658 83 L 651 86 Q 646 90 644 97 L 644 102 L 647 109 Q 651 114 659 115 L 669 114 L 675 110 L 678 105 L 679 100 L 678 94 L 675 89 Q 670 82 658 83 Z M 325 85 L 325 127 L 339 127 L 340 126 Q 348 127 352 125 L 351 118 L 341 120 L 334 120 L 333 120 L 333 85 L 325 85 Z M 588 85 L 588 91 L 589 91 L 625 91 L 624 115 L 622 122 L 630 123 L 631 122 L 632 105 L 633 104 L 633 85 L 588 85 Z M 654 120 L 654 141 L 698 141 L 698 136 L 698 135 L 662 135 L 662 120 L 654 120 Z M 582 127 L 582 133 L 584 134 L 640 134 L 640 128 L 640 127 L 582 127 Z " /><path fill="rgb(5,172,79)" stroke="rgb(5,172,79)" stroke-width="1" opacity="1" d="M 400.5 90 L 408 93.5 L 411 102.5 L 411 109.5 L 409 116.5 L 404.5 121 Q 396.9 122.1 395 117.5 Q 391.1 111.4 393 99.5 Q 394.3 93.8 398.5 91 L 400.5 90 Z " /><path fill="rgb(5,172,79)" stroke="rgb(5,172,79)" stroke-width="1" opacity="1" d="M 657.5 90 Q 667.6 88.4 670 94.5 L 671 100.5 L 666.5 107 L 658.5 108 L 653 103.5 L 652 95.5 L 654 92 L 657.5 90 Z " /><path fill="rgb(5,172,79)" stroke="rgb(5,172,79)" stroke-width="1" opacity="1" d="M 454 106 L 469 106 L 469 121 L 455.5 121 L 454 119.5 L 454 106 Z " /><path fill="rgb(247,252,249)" stroke="rgb(247,252,249)" stroke-width="1" opacity="1" d="M 216 76 L 237.5 76 L 241 79.5 L 264.5 114 L 265 76 L 287.5 76 L 288 76.5 L 288 148 L 266.5 148 L 263 144.5 L 239.5 110 L 239 148 L 216.5 148 L 216 147.5 L 216 76 Z " /><path fill="rgb(247,252,249)" stroke="rgb(247,252,249)" stroke-width="1" opacity="1" d="M 369 79 L 376.5 79 L 377 79.5 L 377 142 L 369.5 142 L 369 141.5 L 369 79 Z " /><path fill="rgb(247,252,249)" stroke="rgb(247,252,249)" stroke-width="1" opacity="1" d="M 428 79 L 435.5 79 L 436 79.5 L 436 142 L 428.5 142 L 428 141.5 L 428 79 Z " /><path fill="rgb(247,252,249)" stroke="rgb(247,252,249)" stroke-width="1" opacity="1" d="M 490 79 L 497.5 79 L 498 79.5 L 498 142 L 490.5 142 L 490 141.5 L 490 108 L 477 108 L 477 127 L 447.5 127 L 446 125.5 L 446 84 L 454 84 L 454 99 L 469 99 L 469 84 L 477 84 L 477 101 L 490 101 L 490 79 Z M 454 106 L 454 120 L 456 121 L 469 121 L 469 106 L 454 106 Z " /><path fill="rgb(247,252,249)" stroke="rgb(247,252,249)" stroke-width="1" opacity="1" d="M 688 79 L 695.5 79 L 696 79.5 L 696 125 L 689.5 125 L 688 123.5 L 688 79 Z " /><path fill="rgb(247,252,249)" stroke="rgb(247,252,249)" stroke-width="1" opacity="1" d="M 356 80 L 362.5 80 L 363 80.5 L 363 139 L 356.5 139 L 356 138.5 L 356 106 L 343 106 L 343 99 L 356 99 L 356 80 Z " /><path fill="rgb(247,252,249)" stroke="rgb(247,252,249)" stroke-width="1" opacity="1" d="M 399.5 83 Q 410.3 82.8 414 89.5 Q 420.3 97.2 418 113.5 L 411.5 125 Q 407.7 129.7 397.5 128 L 389 121.5 L 386 115.5 L 385 101.5 L 387 93.5 L 391.5 87 L 399.5 83 Z M 401 90 L 399 91 Q 394 94 393 100 Q 391 111 395 118 Q 397 122 405 121 L 409 117 L 411 110 L 411 103 L 408 94 L 401 90 Z " /><path fill="rgb(247,252,249)" stroke="rgb(247,252,249)" stroke-width="1" opacity="1" d="M 528 83 L 572 83 L 572 104 L 536.5 104 L 536 104.5 L 536 112 L 573.5 112 L 574 112.5 L 574 118 L 554 118 L 554 128 L 578.5 128 L 579 128.5 L 579 135 L 521.5 135 L 521 134.5 L 521 128 L 546 128 L 546 118 L 528 118 L 528 97 L 563.5 97 L 564 96.5 L 564 89 L 528.5 89 L 528 88.5 L 528 83 Z " /><path fill="rgb(247,252,249)" stroke="rgb(247,252,249)" stroke-width="1" opacity="1" d="M 657.5 83 Q 670.5 81.5 675 88.5 L 678 93.5 L 679 99.5 L 678 104.5 L 675 110 L 668.5 114 L 658.5 115 Q 650.9 113.6 647 108.5 L 644 101.5 L 644 96.5 Q 645.5 89.5 650.5 86 L 657.5 83 Z M 658 90 L 654 92 L 652 96 L 653 104 L 659 108 L 667 107 L 671 101 L 670 95 Q 668 88 658 90 Z " /><path fill="rgb(247,252,249)" stroke="rgb(247,252,249)" stroke-width="1" opacity="1" d="M 325 85 L 333 85 L 333 119.5 L 333.5 120 L 340.5 120 L 351 118 L 352 125 Q 347.5 126.7 339.5 126 L 338.5 127 L 325 127 L 325 85 Z " /><path fill="rgb(247,252,249)" stroke="rgb(247,252,249)" stroke-width="1" opacity="1" d="M 588 85 L 633 85 L 633 103.5 L 632 104.5 L 631 121.5 L 629.5 123 L 622 121.5 L 624 114.5 L 625 91 L 588.5 91 L 588 90.5 L 588 85 Z " /><path fill="rgb(247,252,249)" stroke="rgb(247,252,249)" stroke-width="1" opacity="1" d="M 654 120 L 662 120 L 662 135 L 697.5 135 L 698 135.5 L 698 141 L 654 141 L 654 120 Z " /><path fill="rgb(247,252,249)" stroke="rgb(247,252,249)" stroke-width="1" opacity="1" d="M 582 127 L 639.5 127 L 640 127.5 L 640 134 L 583.5 134 L 582 132.5 L 582 127 Z " /></svg>